PathFileType	4	(X/Y/Z)	E:\Qualisys_Data\Carbon_Farble_Plate\Data\Amateur_Runner\S1\T2\S1T2V11_c3d.trc
DataRate	CameraRate	NumFrames	NumMarkers	Units	OrigDataRate	OrigDataStartFrame	OrigNumFrames
200.000000	200.000000	4	39	mm	200.000000	195	312
Frame#	Time	LSHO			RSHO			LICST			RICST			LASIS			LHEEL			RASIS			LTROC			RTROC			SACR			LTH1			LSK4			LTH2			LTH3			RHM5			LSK2			LTH4			RTH1			LTOE			RTH2			RTH3			RTH4			LLEP			RLEP			LSK1			LSK3			RSK1			LHM5			RSK2			LFT1			RSK3			RSK4			LLME			RLME			RTOE			RHEEL			RFT1			RFT2			LFT2			
		X1	Y1	Z1	X2	Y2	Z2	X3	Y3	Z3	X4	Y4	Z4	X5	Y5	Z5	X6	Y6	Z6	X7	Y7	Z7	X8	Y8	Z8	X9	Y9	Z9	X10	Y10	Z10	X11	Y11	Z11	X12	Y12	Z12	X13	Y13	Z13	X14	Y14	Z14	X15	Y15	Z15	X16	Y16	Z16	X17	Y17	Z17	X18	Y18	Z18	X19	Y19	Z19	X20	Y20	Z20	X21	Y21	Z21	X22	Y22	Z22	X23	Y23	Z23	X24	Y24	Z24	X25	Y25	Z25	X26	Y26	Z26	X27	Y27	Z27	X28	Y28	Z28	X29	Y29	Z29	X30	Y30	Z30	X31	Y31	Z31	X32	Y32	Z32	X33	Y33	Z33	X34	Y34	Z34	X35	Y35	Z35	X36	Y36	Z36	X37	Y37	Z37	X38	Y38	Z38	X39	Y39	Z39	

196	0.975	892.757568359375	1523.939575195312	-507.5865478515625	936.3358154296876	1500.421020507812	-183.9317474365234	869.2779541015625	1053.496337890625	-481.0989074707031	873.7197265625	1061.6845703125	-184.6522369384766	910.9923706054688	1013.242919921875	-454.8974914550781	773.1671142578125	233.7760314941406	-376.5693969726562	908.012451171875	1009.998901367188	-193.0059814453125	821.6944580078125	931.2940673828124	-507.5380859375	784.4982299804688	935.250244140625	-169.9853820800781	751.8214721679688	1077.053100585938	-331.4340209960938	1002.851318359375	849.4788208007812	-465.4607543945312	857.8060302734375	369.11083984375	-411.6907043457031	940.6673583984376	803.3091430664062	-503.5611267089844	1057.366943359375	761.1467895507812	-453.8195190429688	594.1737670898438	60.24668884277344	-200.8464660644531	912.0931396484376	449.6333618164062	-449.2857666015625	989.17578125	717.0209350585938	-482.56103515625	883.525634765625	783.7501220703125	-188.7848205566406	997.7664184570312	114.3661880493164	-383.8934326171875	809.33935546875	798.772216796875	-161.6230621337891	859.425048828125	685.949951171875	-200.3886108398438	782.6534423828125	703.7890014648438	-178.989501953125	1070.467163085938	593.7904663085938	-444.6227416992188	765.2054443359375	532.6344604492188	-220.5879974365234	980.5697021484376	399.9471740722656	-444.2560729980469	917.8967895507812	321.0955810546875	-437.7069702148438	667.4263916015625	367.332763671875	-202.9903411865234	923.1843872070312	113.5391540527344	-448.6520080566406	597.5726318359375	408.5919189453125	-210.0223846435547	769.2779541015625	203.0922698974609	-351.8975219726562	618.2930908203125	279.8435363769531	-213.2187957763672	550.3369140625	322.0682678222656	-233.0776214599609	831.6443481445312	235.6956329345703	-429.1847839355469	521.102783203125	184.3822021484375	-213.5888977050781	654.8931884765625	51.89490509033203	-277.6838989257812	440.6598815917969	175.0569458007812	-256.1436157226562	436.8184814453125	141.4060668945312	-286.7491149902344	432.0264282226562	147.7562561035156	-229.9490509033203	763.861083984375	201.9409484863281	-404.6178894042969
197	0.98	907.6534423828124	1526.75390625	-508.0987854003906	953.25927734375	1504.901611328125	-185.3499755859375	885.9534301757812	1057.401733398438	-481.9031677246094	891.2939453125	1064.593383789062	-185.4455413818359	927.5387573242188	1016.594543457031	-456.1275329589844	805.1233520507812	223.4918212890625	-376.3019409179688	925.1614379882812	1012.732971191406	-193.8514099121094	838.578125	935.7471313476562	-507.9829711914062	800.7175903320312	938.8739624023438	-171.030029296875	768.7344360351562	1080.843505859375	-331.7049865722656	1019.420654296875	853.6590576171875	-465.4813232421875	883.1924438476562	362.9379272460938	-411.4980773925781	957.5287475585938	807.3080444335938	-503.2945556640625	1073.896362304688	765.1495361328125	-453.3797302246094	596.8050537109375	61.72441482543945	-200.2255706787109	933.515869140625	445.97509765625	-449.876953125	1005.345581054688	720.8152465820312	-481.71923828125	897.6260986328125	786.2877197265625	-188.6493072509766	1034.550659179688	114.4801940917969	-384.1387329101562	823.44384765625	802.5765380859375	-161.7194366455078	871.341552734375	688.4503784179688	-200.8379669189453	795.1161499023438	707.9627075195312	-179.5590667724609	1086.799072265625	597.4712524414062	-444.2297973632812	774.134521484375	537.1837158203125	-220.4410858154297	1004.602478027344	399.3014221191406	-444.1777954101562	945.6087036132812	317.8060607910156	-437.72119140625	675.1289672851562	372.94677734375	-201.6094665527344	959.5111083984376	110.5893707275391	-449.1210021972656	604.7847290039062	414.5079650878906	-209.4139556884766	802.3081665039062	192.8248901367188	-351.7037963867188	626.289794921875	285.304931640625	-211.8363647460938	558.1126098632812	327.5970764160156	-232.610595703125	863.4623413085938	228.5408172607422	-429.1799621582031	528.5698852539062	189.2125244140625	-212.3811645507812	656.5765991210938	51.20952987670898	-277.5344543457031	448.50439453125	182.8226776123047	-256.0107421875	443.8290100097656	149.8953094482422	-286.6052856445312	438.8182678222656	155.9596099853516	-230.1824951171875	796.6198120117188	191.7580108642578	-404.5560913085938
198	0.985	922.4579467773438	1530.196655273438	-508.6272583007812	970.1643676757812	1509.416870117188	-186.6619415283203	902.8234252929688	1061.311767578125	-482.6759033203125	908.7184448242188	1067.38330078125	-186.2474670410156	943.255615234375	1019.677062988281	-456.8436279296875	836.6235961914062	214.0841522216797	-375.4286499023438	942.1065673828124	1015.0703125	-194.7053833007812	855.2255249023438	939.834228515625	-508.2821655273438	817.2540283203125	942.77587890625	-171.3539581298828	785.73193359375	1084.166137695312	-332.1260681152344	1036.064575195312	857.2258911132812	-465.6216735839844	908.701904296875	356.8653869628906	-411.1591491699219	974.0386962890624	810.7412719726562	-503.1532897949219	1089.724975585938	768.5975952148438	-452.8591613769531	599.564208984375	63.11464309692383	-199.5305633544922	955.3236694335938	442.116943359375	-450.66162109375	1021.558532714844	724.4891967773438	-480.9339599609375	911.36279296875	788.5714721679688	-188.7875213623047	1070.815063476562	114.6404495239258	-384.8741760253906	837.8082275390625	806.385986328125	-161.7996368408203	883.8823852539062	691.6527709960938	-200.8047332763672	807.58935546875	712.2745361328125	-179.321533203125	1102.754028320312	600.2210083007812	-444.1758422851562	783.3135375976562	542.1417236328125	-219.6671905517578	1028.426025390625	398.6720275878906	-444.1741638183594	972.9458618164062	314.4934387207031	-437.5320434570312	683.4238891601562	378.1270751953125	-200.7978668212891	996.208251953125	107.9143218994141	-449.2699890136719	613.1888427734375	420.0579833984375	-209.0157928466797	835.6434936523438	182.6405334472656	-350.9579772949219	633.9619140625	290.7154235839844	-210.666015625	566.543701171875	332.8809814453125	-232.0502777099609	894.727783203125	221.1731109619141	-428.4130859375	536.6422119140625	194.4948120117188	-211.2615814208984	658.3458862304688	50.62094879150391	-277.1779174804688	457.55322265625	191.4483184814453	-255.3905792236328	451.0475769042969	158.7534332275391	-286.2382507324219	446.6115112304688	164.8907928466797	-230.1976165771484	829.8546142578125	181.7141723632812	-403.4996032714844
199	0.99	937.5590209960938	1533.10302734375	-509.4720458984375	987.153564453125	1513.61474609375	-187.9424133300781	919.9290161132812	1064.682373046875	-482.9449462890625	926.2780151367188	1069.86328125	-186.6120300292969	959.6419067382812	1022.256042480469	-457.8857116699219	868.9063720703125	204.5165710449219	-374.7461853027344	959.50048828125	1017.711303710938	-195.7094268798828	871.9389038085938	943.6931762695312	-509.2983093261719	833.5474853515625	946.2958984375	-171.8793640136719	804.2830810546875	1088.385131835938	-331.6440734863281	1052.662475585938	860.6397094726562	-465.8040771484375	934.3251953125	350.7678527832031	-410.8539428710938	989.9857788085938	814.118408203125	-503.0218200683594	1105.979736328125	771.6681518554688	-452.5992126464844	602.8621826171875	64.29621124267578	-199.2951965332031	976.9931640625	437.8666687011719	-450.9959106445312	1036.9140625	727.540283203125	-479.7283935546875	925.4857177734376	791.0532836914062	-188.4728240966797	1107.072875976562	115.5467910766602	-385.5646667480469	852.1107177734375	810.2489013671875	-162.0273895263672	896.1885375976562	694.556884765625	-200.7355651855469	820.4300537109375	716.4839477539062	-179.1416625976562	1118.296508789062	602.67626953125	-444.0698852539062	792.9088134765625	546.564453125	-219.2930297851562	1051.846069335938	397.6902465820312	-444.1517028808594	1000.091613769531	311.0839538574219	-437.1458740234375	692.0296020507812	383.6988525390625	-199.3614349365234	1032.479736328125	105.6206512451172	-449.6853942871094	621.8386840820312	425.5486145019531	-208.2350006103516	869.1469116210938	173.0372467041016	-350.3228149414062	642.6871337890625	296.38623046875	-209.0117645263672	575.3019409179688	338.450927734375	-231.4702301025391	926.01220703125	214.4415130615234	-428.0595092773438	544.8463134765625	199.3657684326172	-210.2673950195312	660.6843872070312	49.92514038085938	-276.8531799316406	467.0120239257812	199.6650390625	-255.2635498046875	459.2916564941406	168.0013580322266	-286.3726501464844	455.11181640625	173.6683654785156	-229.4205474853516	863.4993286132812	171.7669219970703	-402.9791564941406
